HIERARCHY
ROOT hip
{
  OFFSET 0 0 0
  CHANNELS 6 Xposition Yposition Zposition Zrotation Yrotation Xrotation
  JOINT abdomen
  {
    OFFSET 0 20.6881 -0.73152
    CHANNELS 3 Zrotation Xrotation Yrotation
    JOINT chest
    {
      OFFSET 0 11.7043 -0.48768
      CHANNELS 3 Zrotation Xrotation Yrotation
      JOINT neck
      {
        OFFSET 0 22.1894 -2.19456
        CHANNELS 3 Zrotation Xrotation Yrotation
        JOINT head
        {
          OFFSET -0.24384 7.07133 1.2192
          CHANNELS 3 Zrotation Xrotation Yrotation
          JOINT leftEye
          {
            OFFSET 4.14528 8.04674 8.04672
            CHANNELS 3 Zrotation Xrotation Yrotation
            End Site
            {
              OFFSET 1 0 0
            }
          }
          JOINT rightEye
          {
            OFFSET -3.6576 8.04674 8.04672
            CHANNELS 3 Zrotation Xrotation Yrotation
            End Site
            {
              OFFSET 1 0 0
            }
          }
        }
      }
      JOINT rCollar
      {
        OFFSET -2.68224 19.2634 -4.8768
        CHANNELS 3 Zrotation Xrotation Yrotation
        JOINT rShldr
        {
          OFFSET -8.77824 -1.95073 1.46304
          CHANNELS 3 Zrotation Xrotation Yrotation
          JOINT rForeArm
          {
            OFFSET -28.1742 -1.7115 0.48768
            CHANNELS 3 Zrotation Xrotation Yrotation
            JOINT rHand
            {
              OFFSET -22.5879 0.773209 7.07136
              CHANNELS 3 Zrotation Xrotation Yrotation
              JOINT rThumb1
              {
                OFFSET -1.2192 -0.487915 3.41376
                CHANNELS 3 Zrotation Xrotation Yrotation
                JOINT rThumb2
                {
                  OFFSET -3.37035 -0.52449 3.41376
                  CHANNELS 3 Zrotation Xrotation Yrotation
                  End Site
                  {
                    OFFSET -1.78271 -1.18214 1.43049
                  }
                }
              }
              JOINT rIndex1
              {
                OFFSET -7.75947 0.938293 5.60832
                CHANNELS 3 Zrotation Xrotation Yrotation
                JOINT rIndex2
                {
                  OFFSET -2.54057 -0.884171 1.56538
                  CHANNELS 3 Zrotation Xrotation Yrotation
                  End Site
                  {
                    OFFSET -1.62519 -0.234802 1.16502
                  }
                }
              }
              JOINT rMid1
              {
                OFFSET -8.24714 1.18213 3.41376
                CHANNELS 3 Zrotation Xrotation Yrotation
                JOINT rMid2
                {
                  OFFSET -3.10165 -0.590103 1.0647
                  CHANNELS 3 Zrotation Xrotation Yrotation
                  End Site
                  {
                    OFFSET -2.48547 -0.328903 0.83742
                  }
                }
              }
              JOINT rRing1
              {
                OFFSET -8.82822 0.546677 1.51678
                CHANNELS 3 Zrotation Xrotation Yrotation
                JOINT rRing2
                {
                  OFFSET -2.60934 -0.819778 -0.0198488
                  CHANNELS 3 Zrotation Xrotation Yrotation
                  End Site
                  {
                    OFFSET -2.33842 -0.294052 0.168128
                  }
                }
              }
              JOINT rPinky1
              {
                OFFSET -8.27202 -0.0477905 -0.4584
                CHANNELS 3 Zrotation Xrotation Yrotation
                JOINT rPinky2
                {
                  OFFSET -1.82734 -0.647385 -0.700984
                  CHANNELS 3 Zrotation Xrotation Yrotation
                  End Site
                  {
                    OFFSET -1.69225 -0.51767 -0.607171
                  }
                }
              }
            }
          }
        }
      }
      JOINT lCollar
      {
        OFFSET 2.68224 19.2634 -4.8768
        CHANNELS 3 Zrotation Xrotation Yrotation
        JOINT lShldr
        {
          OFFSET 8.77824 -1.95073 1.46304
          CHANNELS 3 Zrotation Xrotation Yrotation
          JOINT lForeArm
          {
            OFFSET 28.1742 -1.7115 0.48768
            CHANNELS 3 Zrotation Xrotation Yrotation
            JOINT lHand
            {
              OFFSET 22.5879 0.773209 7.07136
              CHANNELS 3 Zrotation Xrotation Yrotation
              JOINT lThumb1
              {
                OFFSET 1.2192 -0.487915 3.41376
                CHANNELS 3 Zrotation Xrotation Yrotation
                JOINT lThumb2
                {
                  OFFSET 3.37035 -0.52449 3.41376
                  CHANNELS 3 Zrotation Xrotation Yrotation
                  End Site
                  {
                    OFFSET 1.78271 -1.18214 1.43049
                  }
                }
              }
              JOINT lIndex1
              {
                OFFSET 7.75947 0.938293 5.60832
                CHANNELS 3 Zrotation Xrotation Yrotation
                JOINT lIndex2
                {
                  OFFSET 2.54057 -0.884171 1.56538
                  CHANNELS 3 Zrotation Xrotation Yrotation
                  End Site
                  {
                    OFFSET 1.62519 -0.234802 1.16502
                  }
                }
              }
              JOINT lMid1
              {
                OFFSET 8.24714 1.18213 3.41376
                CHANNELS 3 Zrotation Xrotation Yrotation
                JOINT lMid2
                {
                  OFFSET 3.10165 -0.590103 1.0647
                  CHANNELS 3 Zrotation Xrotation Yrotation
                  End Site
                  {
                    OFFSET 2.48547 -0.328903 0.83742
                  }
                }
              }
              JOINT lRing1
              {
                OFFSET 8.82822 0.546677 1.51678
                CHANNELS 3 Zrotation Xrotation Yrotation
                JOINT lRing2
                {
                  OFFSET 2.60934 -0.819778 -0.0198488
                  CHANNELS 3 Zrotation Xrotation Yrotation
                  End Site
                  {
                    OFFSET 2.33842 -0.294052 0.168128
                  }
                }
              }
              JOINT lPinky1
              {
                OFFSET 8.27202 -0.0477905 -0.4584
                CHANNELS 3 Zrotation Xrotation Yrotation
                JOINT lPinky2
                {
                  OFFSET 1.82734 -0.647385 -0.700984
                  CHANNELS 3 Zrotation Xrotation Yrotation
                  End Site
                  {
                    OFFSET 1.69225 -0.51767 -0.607171
                  }
                }
              }
            }
          }
        }
      }
    }
  }
  JOINT rButtock
  {
    OFFSET -8.77824 4.35084 1.2192
    CHANNELS 3 Zrotation Xrotation Yrotation
    JOINT rThigh
    {
      OFFSET 0 -1.70687 -2.19456
      CHANNELS 3 Zrotation Xrotation Yrotation
      JOINT rShin
      {
        OFFSET 0 -36.8199 0.73152
        CHANNELS 3 Zrotation Xrotation Yrotation
        JOINT rFoot
        {
          OFFSET 0.73152 -45.1104 -5.12064
          CHANNELS 3 Zrotation Xrotation Yrotation
          End Site
          {
            OFFSET -1.1221 -3.69964 12.103
          }
        }
      }
    }
  }
  JOINT lButtock
  {
    OFFSET 8.77824 4.35084 1.2192
    CHANNELS 3 Zrotation Xrotation Yrotation
    JOINT lThigh
    {
      OFFSET 0 -1.70687 -2.19456
      CHANNELS 3 Zrotation Xrotation Yrotation
      JOINT lShin
      {
        OFFSET 0 -36.8199 0.73152
        CHANNELS 3 Zrotation Xrotation Yrotation
        JOINT lFoot
        {
          OFFSET -0.73152 -45.1104 -5.12064
          CHANNELS 3 Zrotation Xrotation Yrotation
          End Site
          {
            OFFSET 1.1221 -3.69964 12.103
          }
        }
      }
    }
  }
}
MOTION
Frames:	8
Frame Time:	0.03333
-8.0635 61.893299999999996 -5.8941 -171.752723 -77.173655 173.597014 -3.314192 17.102924 -168.03104 -0.812353 7.157479 -177.680337 2.606083 28.465989 -109.090585 41.60315 8.585042 108.802844 56.513244 -12.700691 -23.397173 6.211529 3.068798 52.549522 -17.547591 62.806138 8.621602 80.073533 -20.155172 66.672278 -2.635846 -2.944495 94.424431 4.040877 -51.577768 -8.840249 9.222542 -21.217533 -17.110817 -122.254144 -57.084038 147.756129 39.610805 -58.787178 0.192819 53.109531 -57.847465 -15.169604 -170.043158 -65.139172 169.781158 -89.406285 -69.738939 -154.232787 150.231059 -6.219291 -179.893519 123.431333 6.341102 -175.242479 -99.446378 -62.182728 -44.334033 -120.386071 26.577177 -97.541504 3.560124 -5.503339 -8.792587 119.985589 -16.189882 -104.557619 107.99358 -12.745835 143.743305 -18.319946 -27.978878 -17.708011 12.38734 12.095962 3.37172 62.377827 17.604811 -6.107884 40.078658 -48.737941 137.591643 -34.039415 80.203287 -60.6093 168.960577 31.876226 175.902409 -28.06787 42.371362 74.549015 97.345195 19.501932 -100.997346 129.393601 -73.126717 -140.396917 73.918261 5.971864 -134.550732 10.15485 68.257776 -162.837027 83.011502 19.259144 71.279087 -120.962272 36.879447 -137.877574 -79.737842 -41.046741 156.658073 -58.397266 47.431526 -27.916319 -91.856289 0.963655 -88.823546 109.784339 23.894454 -12.248291 -50.770797 63.598349 -66.672617 -59.02308 53.545956 158.460883
-8.4162 62.2078 -5.5826 -173.443423 -79.470878 174.948168 -3.909212 23.070291 -6.846714 4.036401 -11.95452 21.770052 21.554679 25.791953 98.826927 -38.210556 27.884601 -90.576186 53.952825 -14.229655 -27.556531 1.595613 0.851585 56.175841 -34.870296 74.720461 28.091511 62.363458 -22.720814 76.752091 -2.528441 -26.75324 92.426582 1.266431 -51.860962 -10.740802 -26.397691 45.629569 -2.988676 -5.486762 -2.478751 34.49735 -148.195261 -25.252549 126.917883 -0.6302 -0.38602 -25.45012 -162.337947 21.789215 149.68539 -21.987175 -21.240795 -37.52192 150.237001 -12.949469 167.710305 -71.392657 11.099467 -9.716129 -140.797653 -73.652631 -80.628751 46.265582 28.034694 -65.810957 -122.285746 -81.715177 -102.752355 -71.576012 -25.222225 27.92695 103.354933 5.812489 -133.872535 -31.244858 -45.252026 -27.505552 167.365982 -3.529999 -93.912719 109.865424 -16.768625 -99.437366 -86.080794 78.683345 59.176797 76.633541 25.017029 48.555854 17.640479 -27.814516 55.414474 -23.152918 14.821906 -57.504165 95.257035 35.113594 -101.70091 -62.360948 -2.710367 -6.61743 84.737262 17.606589 -151.479519 -65.184071 -72.028164 34.42707 -38.564977 23.821072 -80.184599 62.824489 1.378198 -82.041662 -99.015896 -51.910309 -100.140874 54.434707 17.246951 172.001647 -98.673509 3.185605 -94.783607 113.675191 26.261936 127.417299 72.192856 -35.715958 149.473153 65.671843 -24.903018 153.141064
-7.4337 63.3223 -4.4944999999999995 -162.744215 -77.324223 166.913674 0.532614 20.72453 1.30649 -0.402636 -11.956159 13.380156 19.268993 22.622461 85.113698 -35.976418 15.787231 -80.743336 51.866823 -11.411591 -23.22113 -32.762856 -20.092171 62.150295 -6.090812 37.324436 -5.826341 -106.616208 5.177725 117.608299 -179.411797 -7.699767 -99.42249 -4.516452 -31.171666 -13.187899 -11.528809 38.75298 -5.906136 31.424341 -32.173685 18.760505 15.502518 -23.078051 -5.386855 -41.542041 49.910243 57.892461 14.300816 -55.100467 -8.757213 3.810223 22.911405 26.445196 169.100447 11.606395 -175.353234 119.664532 14.502672 -168.436752 -48.116114 -30.32654 28.961471 -133.827035 61.005258 -82.51373 -16.741959 -59.337626 -8.076136 101.152228 -69.685068 -154.103816 -24.6791 -34.947475 81.068239 -165.102168 -14.353457 -149.340493 163.089191 3.166111 -92.521489 4.151522 -3.183182 -10.511062 51.626509 -48.437163 153.718078 -15.513747 82.209252 -66.492975 30.819663 -31.900654 54.094206 -80.601782 -16.663717 -41.139102 -1.313825 -7.228124 -29.582009 13.331493 -9.232453 62.770649 -56.788013 -43.764395 -27.199914 102.720931 -46.314766 -13.661941 18.063211 -24.54867 -6.061101 -30.88501 -19.070588 76.318384 89.899974 26.932265 175.680735 22.941419 -28.629424 95.912972 4.118467 8.528523 104.695409 -77.302207 1.242467 -86.391955 5.799725 71.500963 56.458185 72.209957 -51.671576 -23.598213
-6.2987 64.6439 -3.971 -148.11697 -78.701954 152.315697 3.757914 22.816946 -4.956377 -1.385145 -14.432628 17.032797 -6.84778 29.602422 -105.903585 37.499592 20.067596 104.491651 60.618569 -13.734574 -23.282563 -21.946654 -10.900212 52.400457 -144.74995 -58.341995 -165.144926 98.038916 41.284706 -82.133439 -12.303476 32.530062 82.932356 -0.413415 -36.919977 -11.991671 -149.810251 -7.80797 107.025719 -158.19784 -4.543448 102.422721 -120.83212 19.055749 111.181355 -167.181587 39.735303 121.965948 -157.432353 -8.784523 136.618864 -3.472419 52.578262 5.95891 -147.634012 -36.446335 -122.745714 155.7734 11.016204 -90.024032 -48.820929 -37.85861 23.739495 60.103188 -29.327509 -57.641105 -3.609939 -40.196651 -1.051038 99.358317 -49.370321 -134.986261 179.46685 9.86461 114.139801 3.345013 33.18478 -0.130894 177.56929 -12.408311 -93.510474 103.67732 24.923962 -57.825338 2.408009 -57.368298 107.15759 18.602113 27.157435 -95.380151 26.064973 -12.636115 33.928409 177.83332 -21.954273 -94.968867 38.850915 54.782817 -55.421358 -58.275767 57.845817 16.538436 -42.271383 -50.608845 4.263397 77.587522 -64.95085 -29.579551 67.016547 9.869101 83.501508 -86.139327 52.02958 -4.481449 75.946128 60.800513 13.417139 179.67962 69.183157 93.333084 12.80445 7.880685 88.937813 -77.3468 -11.195632 -152.755687 -77.512448 6.981636 -68.633899 153.621702 18.476123 177.228306
-5.2176 65.9842 -3.7303 -122.924624 -81.684053 127.566428 4.569802 18.749055 178.226493 3.292051 11.286551 -169.029138 7.427228 23.583903 88.187949 -35.486364 0.011146 -83.916193 61.102762 -18.088416 -30.184225 -20.911697 -7.861116 40.842763 -153.929021 -54.055195 -179.052564 72.79528 39.727643 -69.463615 11.89362 55.419714 63.010291 -6.307119 -13.820666 -9.763378 62.255475 -48.537768 -2.759655 -134.655208 -1.024055 105.480914 9.301345 25.361646 6.160372 165.271575 -2.30435 97.366358 -143.311202 3.715827 115.110544 -150.225688 -12.344444 133.885442 57.233486 58.173325 -58.349266 -70.918211 0.257033 49.414685 -56.998323 -11.810865 26.597693 97.716115 -24.287077 -0.852502 141.537449 37.640968 -140.051849 78.816997 18.358941 26.147043 168.617188 -22.825674 106.73166 -1.286992 17.988435 6.371483 170.544903 -2.002904 -94.050218 -139.375739 -79.917742 -123.568616 97.298202 41.822292 -147.646258 25.339555 -28.63927 91.390207 120.03286 69.565507 -85.53629 -167.191036 -49.5371 -154.713505 0.118325 -31.167656 2.942599 65.650975 -59.774968 74.622662 50.077653 -55.280808 104.796684 -130.060755 -18.212617 -131.933837 -60.10635 -0.051609 -90.015743 40.117856 42.199277 80.719182 77.473577 53.090177 19.528342 -89.777928 -45.440008 -165.136706 16.682337 33.406673 70.573808 -105.660133 -24.023204 -16.398148 66.341869 20.866878 -24.470809 44.226151 -31.048139 -42.441535
-4.2845 66.468 -3.497 -85.096205 -82.980208 89.847419 2.416022 22.484232 97.09394 -15.074993 4.627624 -88.435733 5.196087 28.463737 104.545718 -42.387956 6.767214 -97.404268 52.256711 -23.875634 -46.634688 -25.009755 -6.163578 27.289845 0.67996 -16.906926 -4.593738 7.381083 57.497148 64.531375 -21.400984 -41.311629 49.97776 -1.310237 -30.592409 -10.864643 -10.956397 32.6655 6.240714 -129.489682 -37.835728 102.608375 -149.397855 -68.101626 117.993062 9.153428 47.047467 33.699061 -66.204307 17.334353 66.733111 -124.616229 -71.646917 168.525756 71.336144 55.769048 -43.23543 -145.062924 49.084884 92.824132 -155.760947 64.771019 132.907492 134.138564 -19.713901 124.073196 131.936274 43.354005 -135.398309 -105.529585 -24.010001 160.503737 7.096296 28.611073 -81.402055 -3.105074 13.973203 12.032683 175.450913 -0.088846 -95.809834 41.883363 -70.772952 33.644372 -13.079085 65.775567 -29.486892 0.660532 63.520647 68.500117 -152.698491 -38.960539 -133.359812 -144.467516 -70.572315 -99.322641 136.13044 24.512358 -159.137538 19.74302 60.603617 -50.643339 89.878674 37.768894 164.598865 36.846293 36.710505 -178.710043 24.854494 1.466713 86.619198 -36.198096 23.833765 -147.292779 -84.267017 26.74125 -159.656589 -109.523828 -27.779555 -178.000716 40.352383 49.176783 44.79756 -130.014828 -35.485962 73.168796 66.311065 -51.55237 134.442021 59.08788 -25.515531 162.670445
-3.5242999999999998 66.6054 -3.2413 -53.983321 -82.05758 58.600768 4.194449 27.350691 13.746915 -11.536524 -18.066083 -8.275284 5.336109 25.39751 72.892964 -40.194476 -15.020095 -74.443701 32.311056 -23.250174 -70.762721 -27.546909 -4.003085 16.227594 -123.180539 59.35126 125.205525 -69.457818 33.212011 34.850742 3.922275 -0.104932 -101.423947 -173.691412 -0.911785 134.396359 5.425926 3.052493 -2.532161 -100.149927 -34.880451 133.708833 -20.646586 39.06228 48.617286 -173.510837 -22.754022 167.04339 -163.623281 -5.525338 88.361243 48.923021 -22.575658 52.023634 40.398814 12.694965 -21.349672 70.758727 -40.597792 72.170669 -63.487024 -8.555196 20.517655 -35.366074 -62.179131 -137.894153 150.28281 -6.489181 -155.494329 -108.900641 -1.711679 109.999599 -139.639848 -48.819149 -27.835551 -169.256468 10.35784 -133.088363 18.489089 -0.315591 9.809625 146.817642 -67.07619 -92.236421 101.741596 -53.587465 -133.377885 162.728611 -64.156268 -51.743886 72.762596 37.077463 -37.669358 3.695504 57.172929 6.812324 146.785677 -12.116096 -163.306722 -136.541904 -67.37855 -107.350116 76.783513 49.965803 -170.48091 38.892289 54.678188 168.950017 15.838274 5.745716 72.16836 -42.881922 4.849141 94.267474 65.088685 -80.999627 -17.662327 140.942521 63.266596 133.704222 -85.293293 18.732363 -12.34178 136.929088 -50.229815 -143.292607 33.04257 -75.279228 -53.978337 -146.099275 5.150315 66.722949
-3.1514 66.0469 -3.2058999999999997 -58.243993 -83.088154 62.591525 2.609699 24.376831 150.007844 -3.643654 18.094515 -141.399111 -3.732345 20.776975 14.517266 3.680802 -41.406807 -7.308118 8.140159 -7.651485 -86.443858 -28.706127 -1.264381 4.93838 -154.577805 10.177304 156.076954 5.440396 68.476797 -51.384054 33.142056 -59.22281 -79.23418 -171.991446 4.291783 128.294071 -124.916989 37.169047 64.675671 -29.56689 -67.048704 57.419003 17.820417 23.308439 26.179868 -30.02418 14.160977 -49.633162 -45.767355 -7.188814 59.922931 -71.190914 -70.434263 -146.64873 -117.778462 47.53733 -174.83889 159.66139 7.234138 -155.336392 -49.614279 -38.231695 25.640303 92.556163 -11.085237 -8.122918 -41.289974 -80.576025 -10.90061 -104.931092 -6.40277 14.283424 146.20944 81.164289 129.87877 -9.388291 22.070479 19.801089 153.822636 41.282781 -80.942976 135.38187 9.984565 -41.641609 76.157564 11.466702 -100.176929 89.081147 -15.069635 -172.675913 109.554026 43.735039 -60.753618 141.029468 -40.530305 -161.111502 76.897843 39.015408 -86.157844 -50.899193 -12.498068 4.928225 -26.954466 26.366084 -61.391274 153.967789 20.944471 32.948116 -73.691755 -2.715699 -44.025499 73.699203 9.445883 96.903143 81.19793 4.868454 -115.101959 -22.129938 -14.40264 0.828065 77.074787 53.437609 12.365873 -148.246647 -46.796091 48.401642 85.266731 -29.792089 78.976354 85.373732 41.669492 -176.821877
